<mxfile host="app.diagrams.net" agent="Mozilla/5.0 (Windows NT 10.0; Win64; x64) AppleWebKit/537.36 (KHTML, like Gecko) Chrome/136.0.0.0 Safari/537.36" version="27.0.5">
  <diagram name="Strona-1" id="oAB8bQ8ivFcmVQRTTNw1">
    <mxGraphModel dx="1188" dy="681" grid="1" gridSize="10" guides="1" tooltips="1" connect="1" arrows="1" fold="1" page="1" pageScale="1" pageWidth="827" pageHeight="1169" math="0" shadow="0">
      <root>
        <mxCell id="0" />
        <mxCell id="1" parent="0" />
        <mxCell id="ionAG6kZlDOR9kiHeVb3-17" value="" style="rounded=0;whiteSpace=wrap;html=1;" vertex="1" parent="1">
          <mxGeometry width="810" height="500" as="geometry" />
        </mxCell>
        <mxCell id="ionAG6kZlDOR9kiHeVb3-18" value="" style="rounded=0;whiteSpace=wrap;html=1;" vertex="1" parent="1">
          <mxGeometry width="810" height="70" as="geometry" />
        </mxCell>
        <mxCell id="ionAG6kZlDOR9kiHeVb3-3" value="Paczka24" style="text;html=1;align=center;verticalAlign=middle;resizable=0;points=[];autosize=1;strokeColor=none;fillColor=none;fontSize=20;fontStyle=1" vertex="1" parent="1">
          <mxGeometry x="130" y="15" width="110" height="40" as="geometry" />
        </mxCell>
        <mxCell id="ionAG6kZlDOR9kiHeVb3-4" value="Zaloguj się" style="text;html=1;align=center;verticalAlign=middle;resizable=0;points=[];autosize=1;strokeColor=none;fillColor=none;" vertex="1" parent="1">
          <mxGeometry x="200" y="150" width="80" height="30" as="geometry" />
        </mxCell>
        <mxCell id="ionAG6kZlDOR9kiHeVb3-6" value="" style="rounded=0;whiteSpace=wrap;html=1;" vertex="1" parent="1">
          <mxGeometry x="190" y="230" width="370" height="50" as="geometry" />
        </mxCell>
        <mxCell id="ionAG6kZlDOR9kiHeVb3-7" value="" style="rounded=0;whiteSpace=wrap;html=1;" vertex="1" parent="1">
          <mxGeometry x="190" y="350" width="370" height="60" as="geometry" />
        </mxCell>
        <mxCell id="ionAG6kZlDOR9kiHeVb3-8" value="Nazwa użytkownika lub adres e-mail" style="text;html=1;align=center;verticalAlign=middle;resizable=0;points=[];autosize=1;strokeColor=none;fillColor=none;" vertex="1" parent="1">
          <mxGeometry x="250" y="200" width="220" height="30" as="geometry" />
        </mxCell>
        <mxCell id="ionAG6kZlDOR9kiHeVb3-9" value="Hasło" style="text;html=1;align=center;verticalAlign=middle;resizable=0;points=[];autosize=1;strokeColor=none;fillColor=none;" vertex="1" parent="1">
          <mxGeometry x="335" y="318" width="50" height="30" as="geometry" />
        </mxCell>
        <mxCell id="ionAG6kZlDOR9kiHeVb3-10" value="" style="ellipse;whiteSpace=wrap;html=1;aspect=fixed;labelBackgroundColor=light-dark(#FFFFFF,#FFFFFF);" vertex="1" parent="1">
          <mxGeometry x="190" y="160" width="10" height="10" as="geometry" />
        </mxCell>
        <mxCell id="ionAG6kZlDOR9kiHeVb3-14" value="Kontakt" style="text;html=1;align=center;verticalAlign=middle;resizable=0;points=[];autosize=1;strokeColor=none;fillColor=none;" vertex="1" parent="1">
          <mxGeometry x="730" y="20" width="60" height="30" as="geometry" />
        </mxCell>
        <mxCell id="ionAG6kZlDOR9kiHeVb3-15" value="" style="ellipse;whiteSpace=wrap;html=1;" vertex="1" parent="1">
          <mxGeometry x="190" y="120" width="10" height="10" as="geometry" />
        </mxCell>
        <mxCell id="ionAG6kZlDOR9kiHeVb3-16" value="Zarejestruj się" style="text;html=1;align=center;verticalAlign=middle;resizable=0;points=[];autosize=1;strokeColor=none;fillColor=none;" vertex="1" parent="1">
          <mxGeometry x="200" y="110" width="100" height="30" as="geometry" />
        </mxCell>
        <mxCell id="ionAG6kZlDOR9kiHeVb3-22" value="" style="shape=mxgraph.sysml.x;" vertex="1" parent="1">
          <mxGeometry x="40" y="15" width="60" height="40" as="geometry" />
        </mxCell>
      </root>
    </mxGraphModel>
  </diagram>
</mxfile>
